<svg xmlns="http://www.w3.org/2000/svg" xmlns:xlink="http://www.w3.org/1999/xlink" viewBox="0 0 854 180" width="854" height="180">
  <defs>
    <linearGradient id="bg" x1="0%" y1="0%" x2="100%" y2="100%">
      <stop offset="0%" style="stop-color:#1a0a3e"/>
      <stop offset="25%" style="stop-color:#2d1b69"/>
      <stop offset="50%" style="stop-color:#1e3a5f"/>
      <stop offset="75%" style="stop-color:#0d4a6b"/>
      <stop offset="100%" style="stop-color:#1a5276"/>
    </linearGradient>
  </defs>
  <rect width="854" height="180" fill="url(#bg)"/>
  <g opacity="0.12">
    <circle cx="120" cy="40" r="70" fill="#ffffff"/>
    <circle cx="700" cy="110" r="55" fill="#ffffff"/>
    <circle cx="450" cy="25" r="35" fill="#ffffff"/>
  </g>
  <path d="M0,155 C100,135 200,165 350,145 C500,125 650,170 854,150 L854,180 L0,180 Z" fill="rgba(13,33,55,0.4)">
    <animate attributeName="d" dur="8s" repeatCount="indefinite" values="M0,155 C100,135 200,165 350,145 C500,125 650,170 854,150 L854,180 L0,180 Z;M0,150 C150,170 300,130 450,155 C600,180 750,140 854,155 L854,180 L0,180 Z;M0,155 C100,135 200,165 350,145 C500,125 650,170 854,150 L854,180 L0,180 Z"/>
  </path>
  <path d="M0,160 C120,145 250,175 400,155 C550,135 700,168 854,158 L854,180 L0,180 Z" fill="rgba(13,33,55,0.6)">
    <animate attributeName="d" dur="6s" repeatCount="indefinite" values="M0,160 C120,145 250,175 400,155 C550,135 700,168 854,158 L854,180 L0,180 Z;M0,165 C180,150 320,170 480,148 C620,130 740,175 854,162 L854,180 L0,180 Z;M0,160 C120,145 250,175 400,155 C550,135 700,168 854,158 L854,180 L0,180 Z"/>
  </path>
  <path d="M0,168 C150,155 300,178 450,163 C600,148 750,172 854,165 L854,180 L0,180 Z" fill="#0d1117">
    <animate attributeName="d" dur="5s" repeatCount="indefinite" values="M0,168 C150,155 300,178 450,163 C600,148 750,172 854,165 L854,180 L0,180 Z;M0,172 C200,158 350,175 500,160 C650,145 780,170 854,168 L854,180 L0,180 Z;M0,168 C150,155 300,178 450,163 C600,148 750,172 854,165 L854,180 L0,180 Z"/>
  </path>
  <text x="427" y="72" text-anchor="middle" font-family="Segoe UI,Helvetica,Arial,sans-serif" font-size="42" font-weight="700">
    <tspan fill="#ffffff">Alter</tspan><tspan fill="#E8A817">Lab</tspan><tspan fill="#ffffff"> GameForge</tspan>
  </text>
  <text x="427" y="108" text-anchor="middle" font-family="Segoe UI,Helvetica,Arial,sans-serif" font-size="16" fill="#ffffff" opacity="0.85">Transform Claude into Your Game Dev Expert</text>
</svg>
